# xmcd
#
# Track frame offsets: 
#        150
#        18590
#        34902
#        52915
#        67262
#        84765
#        101670
#        120402
#        144312
#        163142
#        180480
#        197587
#        223950
#        242260
#        259700
#        283632
#        306187
#
# Disc length: 4414 seconds
#
# Revision: 20
# Processed by: cddbd v1.5.2PL0 Copyright (c) Steve Scherf et al.
# Submitted via: ExactAudioCopy v1.1
#
DISCID=eb113c11
DTITLE=Madonna - The Immaculate Collection
DYEAR=1990
DGENRE=Pop
TTITLE0=Holiday
TTITLE1=Lucky Star
TTITLE2=Borderline
TTITLE3=Like A Virgin
TTITLE4=Material Girl
TTITLE5=Crazy For You
TTITLE6=Into The Groove
TTITLE7=Live To Tell
TTITLE8=Papa Don't Preach
TTITLE9=Open Your Heart
TTITLE10=La Isla Bonita
TTITLE11=Like A Prayer
TTITLE12=Express Yourself
TTITLE13=Cherish
TTITLE14=Vogue
TTITLE15=Justify My Love
TTITLE16=Rescue Me
EXTD=ID3G: 17
EXTT0=
EXTT1=
EXTT2=
EXTT3=
EXTT4=
EXTT5=
EXTT6=
EXTT7=
EXTT8=
EXTT9=
EXTT10=
EXTT11=
EXTT12=
EXTT13=
EXTT14=
EXTT15=
EXTT16=
PLAYORDER=
